<svg width="41" height="46" viewBox="0 0 41 46" fill="none" xmlns="http://www.w3.org/2000/svg">
<path d="M17.1923 11.5445C18.4982 8.3843 19.5097 4.89967 20.2269 1.09058C20.2719 0.843997 20.4215 0.754772 20.6756 0.822908C20.7695 0.847505 20.855 0.898797 20.9223 0.971017C20.9897 1.04324 21.0362 1.13352 21.0567 1.23172C21.8045 4.96943 22.7404 8.73147 24.3373 12.2015C27.3429 18.7279 33.8221 21.0542 40.3785 22.6603C40.4518 22.6785 40.5197 22.7136 40.5767 22.7626C40.6337 22.8117 40.6782 22.8733 40.7066 22.9425C40.7613 23.0723 40.7532 23.194 40.6825 23.3076C40.6182 23.4081 40.5281 23.4714 40.4123 23.4974C36.9612 24.3215 33.9379 25.3841 31.3424 26.6851C24.4 30.1746 22.3641 37.908 21.0422 45.0622C21.0281 45.1393 20.9904 45.2102 20.9343 45.2651C20.8781 45.32 20.8063 45.3562 20.7287 45.3688C20.4167 45.4175 20.2237 45.2471 20.1497 44.8578C19.6448 42.207 19.0031 39.6827 18.2248 37.285C16.4446 31.7953 13.5837 28.116 8.24784 25.9064C5.9096 24.9396 3.43469 24.1333 0.82307 23.4876C0.700851 23.4552 0.609184 23.3838 0.548074 23.2735C0.493397 23.1697 0.485363 23.0642 0.523958 22.9572C0.578635 22.8079 0.681534 22.7122 0.832699 22.67C7.69786 20.9034 14.2205 18.7084 17.1923 11.5445Z" fill="#EBF5FF"/>
</svg>
